#!OML:ASF E:/inclinewalkrobotboard/Project1/Captureday1/Session1/subject1.ASF
:FULLY-SPECIFIED
:DEGREES
326
root 0 0 0 1.3836502045339278 -8.723676289690259 0.9248325494642585
lowerback 1.4518657642881445 -1.2637553764180345 -2.944511092505359
upperback -1.06350568698643 -1.5581284596607416 2.2290863891439443
thorax -1.6836860286529316 -0.7583861402474085 3.932304987930508
lowerneck -26.44207859420383 -1.8859554874559352 -7.20166205222051
upperneck 11.933550739934002 -0.7224421320068372 4.577462038539987
head 7.994839475529436 -0.18608912000313704 2.621584455419489
rclavicle -6.195099026881841E-15 -1.7211058610474476E-15
rhumerus -31.36109551781074 -1.3983452358689235 -80.94819833727426
rradius 30.873776033548083
rwrist 17.76212362985832
rhand -18.43994209797063 9.92327787549556
rfingers 7.125019999999955
rthumb 7.848580700480502 -19.909552348166578
lclavicle -2.0025624818107275E-15 -7.594562612689618E-16
lhumerus -10.806868916260942 8.878155442105374 89.64443051865643
lradius 59.880289143751696
lwrist -5.045339495414515
lhand -33.51783110409422 17.31831953887757
lfingers 7.125020000000008
lthumb -6.709880758391078 46.95796104682808
rfemur 12.165529595766605 7.65870579112423 35.721923101813175
rtibia 28.755258038668057
rfoot -18.109998696487352 -4.578671546072151
rtoes -4.089529433106195
lfemur -31.651291405847683 -3.943664518521066 -9.396270937225482
ltibia 25.487206576610564
lfoot -4.584258173531538 3.438127166539676
ltoes -1.805132932419765
327
root 0 0 0 1.383103097196582 -8.73667063152886 0.9206298484064849
lowerback 1.428853640461358 -1.261532920621779 -2.9474386172449236
upperback -1.0751080551147227 -1.5553094662128721 2.2236656900792386
thorax -1.682364036077806 -0.7570613279612648 3.9291819619319233
lowerneck -26.374312832902334 -1.880976769876269 -7.2166687075972815
upperneck 12.09438067180509 -0.7127630629050531 4.564572729951781
head 8.046177400129004 -0.1902088924493553 2.6233425412994484
rclavicle -7.0883048185201975E-15 -1.7226584027422073E-15
rhumerus -31.354688816607887 -1.347815002330143 -80.93510450012843
rradius 30.870414884699557
rwrist 17.752561703470167
rhand -18.450988942726994 9.931484825578814
rfingers 7.125019999999955
rthumb 7.837790966779847 -19.903627090561255
lclavicle -2.5359880281371184E-15 -7.607162493823535E-16
lhumerus -10.51099009845754 9.157734939132624 89.46614615781174
lradius 59.86039538239845
lwrist -5.148122269497957
lhand -33.572641467698425 17.265633741406276
lfingers 7.125020000000008
lthumb -6.760748423846979 46.90150143308669
rfemur 13.33165550291279 6.5336455593909 32.9749763320186
rtibia 37.083292197145454
rfoot -12.610250776813551 -2.5474167406134236
rtoes -5.694624720175485
lfemur -30.37127659659889 -4.4647076849647185 -9.955138140219724
ltibia 23.886754902962434
lfoot -4.319853812109939 3.092329938072508
ltoes -1.3217645708136505
328
root 0 0 0 1.383697746526623 -8.751314343179876 0.9206253174092529
lowerback 1.4022503517077824 -1.2609647428370219 -2.9535896065524616
upperback -1.0881855679262848 -1.5549438077035527 2.2202314143331585
thorax -1.680621231732832 -0.7564933261128535 3.9297351207863387
lowerneck -26.338513162534092 -1.878266826727967 -7.231324731079977
upperneck 12.197325636763196 -0.7045991813528444 4.55950250154427
head 8.08088308214268 -0.19245363260145776 2.6267252945155133
rclavicle -7.692706672929615E-15 -1.5540902121873294E-15
rhumerus -31.38607888806173 -1.4662215852277827 -80.90477308016906
rradius 30.83773919874599
rwrist 17.75473026729747
rhand -18.428848310243943 9.946272940808504
rfingers 7.125019999999954
rthumb 7.858882001295541 -19.89103185364608
lclavicle -2.9111019291446665E-15 -7.144624557067696E-16
lhumerus -10.121064323720102 9.444834119688544 89.23683814035302
lradius 59.901419541081005
lwrist -5.263519591708775
lhand -33.63921025453642 17.226443100873283
lfingers 7.125020000000008
lthumb -6.823984855320679 46.857433813575255
rfemur 8.852891793449297 4.726124081528827 30.624685770674873
rtibia 46.64384567437668
rfoot -5.5452854435629995 -0.3561826429998618
rtoes -2.743107766497933
lfemur -27.189616091010507 -4.553171885701362 -12.059765379043178
ltibia 25.2619871393198
lfoot -3.1765764705039565 1.0254829325952057
ltoes 0.8268960309983377
329
root 0 0 0 1.3869564720640004 -8.764059805242033 0.9268595704600872
lowerback 1.390815551275889 -1.2658261298962812 -2.9565227802339074
upperback -1.0881441657929698 -1.5622235522710515 2.2213076742300117
thorax -1.6736932584368607 -0.7597488614756466 3.932417562966317
lowerneck -26.392304965103584 -1.881886818509669 -7.232462771885909
upperneck 12.157550797255038 -0.7030601866726823 4.560100640241372
head 8.075238252067843 -0.19100797709059691 2.62657148575755
rclavicle -7.553517083176607E-15 -1.5073572410912556E-15
rhumerus -31.485537497550894 -1.90107885946363 -80.84246287103498
rradius 30.75026020248202
rwrist 17.78153154525186
rhand -18.34419219890917 9.975524595247995
rfingers 7.125019999999951
rthumb 7.93993383077044 -19.86110177698091
lclavicle -2.938316133840741E-15 -7.982051261636638E-16
lhumerus -9.897935454751906 9.67522655591446 89.1448356789878
lradius 59.912835725284125
lwrist -5.348686857055766
lhand -33.68262798647316 17.185161204111015
lfingers 7.125020000000009
lthumb -6.86545435821531 46.81240146381935
rfemur -0.8994025183145347 2.7893771818516377 27.62153667676531
rtibia 57.2954425303853
rfoot 3.3770442548779993 0.6548792962331431
rtoes 4.158545113951197
lfemur -22.323004192001875 -4.258918707549096 -15.378544169230366
ltibia 28.80942855052099
lfoot -1.5049130537112676 -2.2917871029485553
ltoes 4.063042747837601
330
root 0 0 0 1.4004029073172977 -8.769368685259826 0.9453426207587909
lowerback 1.3960025553882236 -1.2779913167442876 -2.960309713639759
upperback -1.0684132793879586 -1.5796502821653537 2.22943928576263
thorax -1.6553545461423242 -0.7680868937959965 3.9423569120773867
lowerneck -26.58175349119335 -1.901191939537696 -7.224072046157909
upperneck 11.867837437485319 -0.7244988312048156 4.592426100854832
head 7.996044484267427 -0.18602458375564537 2.628812547003612
rclavicle -6.742478180703322E-15 -1.2809185681293013E-15
rhumerus -31.7300241413598 -2.8687582035808097 -80.68840371442295
rradius 30.544439324680212
rwrist 17.905365869604694
rhand -18.14449553275942 10.013941924033523
rfingers 7.125019999999947
rthumb 8.131211439365247 -19.814730755516155
lclavicle -2.8173063250787057E-15 -9.34863693459525E-16
lhumerus -10.01992098230234 9.67205196618426 89.2668823372279
lradius 59.87575617684774
lwrist -5.327010365720016
lhand -33.66130946008988 17.178753229836413
lfingers 7.125020000000009
lthumb -6.8452097575813005 46.80635116360248
rfemur -10.049414452668008 1.57103768751342 24.99042882622143
rtibia 64.72950268992884
rfoot 5.71586813073697 -1.742096413008393
rtoes 9.461708541457726
lfemur -17.705141822631976 -3.455940031122531 -18.47666600251291
ltibia 31.654095509678093
lfoot -0.9535161350719497 -4.3017276546297225
ltoes 6.418567431305515
